<svg id="Icons" viewBox="0 0 512 512" xmlns="http://www.w3.org/2000/svg" width="300" height="300" version="1.1" xmlns:xlink="http://www.w3.org/1999/xlink" xmlns:svgjs="http://svgjs.dev/svgjs"><g width="100%" height="100%" transform="matrix(1,0,0,1,0,0)"><path d="m511.2305 125.6021c0-10.71-8.7139-19.4238-19.4238-19.4238h-2.9142c-2.0162-7.7736-3.1473-17.7359-3.1473-28.1523 0-10.4262 1.1296-20.38 3.1458-28.1514h2.9157c10.71 0 19.4238-8.7139 19.4238-19.4238s-8.7139-19.4248-19.4238-19.4248h-365.6973c-7.959 0-15.7578 1.3906-23.1782 4.1338-3.5589 1.3157-5.6156 4.8948-5.1581 8.5035-2.7007-2.4318-6.8089-2.7853-9.9191-.6178-.2397.167-.4775.3359-.7144.5049-3.5952 2.5684-4.4282 7.5645-1.8599 11.1602 1.5615 2.1855 4.0205 3.3506 6.5166 3.3506 1.6089 0 3.2339-.4844 4.6431-1.4912l.564-.3994c2.5203-1.7567 3.7143-4.7026 3.3611-7.5531 2.138 1.9141 5.2353 2.6139 8.114 1.5502 5.6387-2.085 11.5713-3.1416 17.6309-3.1416h365.6973c1.8877 0 3.4238 1.5361 3.4238 3.4248 0 1.8877-1.5361 3.4238-3.4238 3.4238h-365.6973c-24.3452 0-44.1514 19.8066-44.1514 44.1514s19.8062 44.1523 44.1514 44.1523h7.9141v6.8477h-7.9141c-28.1216 0-51-22.8789-51-51 0-9.5654 2.6758-18.8936 7.7378-26.9775 2.3447-3.7451 1.2104-8.6816-2.5347-11.0264-3.7451-2.3457-8.6816-1.2109-11.0259 2.5342-6.6582 10.6328-10.1772 22.8975-10.1772 35.4697 0 20.4078 9.1825 38.7011 23.6199 51h-32.4539c-11.0278 0-20 8.9717-20 20s8.9722 20 20 20h3.3705c2.1761 8.2432 3.3995 18.866 3.3995 29.9736 0 11.1199-1.2226 21.733-3.3991 29.9736h-3.3709c-11.0278 0-20 8.9717-20 20 0 1.3696.1396 2.7071.4031 4h-6.0931c-13.1323 0-23.8159 10.6836-23.8159 23.8164v84.3682c0 13.1318 10.6836 23.8154 23.8154 23.8154h3.4775c-.854 2.4502-1.3242 5.0789-1.3242 7.8164v84.3682c0 13.1328 10.6836 23.8164 23.8154 23.8164h436.8613c13.1318 0 23.8154-10.6836 23.8154-23.8154v-84.3691c0-13.1318-10.6836-23.8154-23.8154-23.8154h-21.9695c.8539-2.4502 1.324-5.0787 1.324-7.8164v-84.3682c0-5.0932-1.6124-9.8141-4.3462-13.6902 24.6713-10.8268 41.9536-35.4766 41.9536-64.0998 0-21.7026-9.9311-41.129-25.4875-53.9736h12.9172c10.71 0 19.4238-8.7139 19.4238-19.4238zm-385.1211-19.4239c-15.5225 0-28.1514-12.6289-28.1514-28.1523s12.6289-28.1514 28.1514-28.1514h346.3474c-1.7654 8.3062-2.7117 17.9697-2.7117 28.1514 0 10.1753.9481 19.8427 2.7141 28.1523h-278.8274v-24.1523h90.5068c4.418 0 8-3.582 8-8s-3.582-8-8-8h-159.1161c-4.418 0-8 3.582-8 8s3.582 8 8 8h9.001v24.1523zm23.914-24.1523h27.6084v48.4951l-9.9609-5.457c-1.1973-.6562-2.5205-.9844-3.8438-.9844s-2.6465.3281-3.8438.9844l-9.96 5.457v-48.4951zm-79.9257 87h364.3057c16.5273 0 29.9736 13.4463 29.9736 29.9736s-13.4463 29.9736-29.9736 29.9736h-19.3838v-8.9062h9c4.418 0 8-3.582 8-8s-3.582-8-8-8h-163.3115c-4.418 0-8 3.582-8 8s3.582 8 8 8h94.7031v8.9062h-285.3127c1.9164-8.805 2.9469-19.1042 2.9469-29.9736 0-10.8604-1.0311-21.1651-2.9478-29.9736zm285.3134 99.9482v13.0928c0 2.8262 1.4912 5.4424 3.9229 6.8828 1.2559.7441 2.666 1.1172 4.0771 1.1172 1.3223 0 2.6455-.3271 3.8447-.9844l14.4287-7.9064v87.798h-293.4931v-86.9072c0-4.418-3.5815-8-8-8s-8 3.582-8 8v86.9072h-21.6183c-.0065 0-.0128-.001-.0193-.001h-3.6875v-99.9999l308.5449.0009zm43.6084-.4131-9.9609-5.457c-1.1973-.6562-2.5205-.9844-3.8438-.9844s-2.6465.3281-3.8447.9844l-9.959 5.457v-48.4941h27.6084zm-312.8803 116.4131v100h-13.314v-100zm16 0h203.3872v100h-203.3872zm219.3872 0h144.8037v100h-144.8037zm76.1582-16v-82.9003l5.4912 3.0087c2.4766 1.3584 5.4883 1.3086 7.9209-.1328 2.4316-1.4404 3.9229-4.0566 3.9229-6.8828v-13.0928h7.9893v100h-25.3242zm-347.4092-116.001c-2.2056 0-4-1.7939-4-4s1.7944-4 4-4h305.1357v8.001l-305.1343-.0009s-.001 0-.0015 0zm-33.5059 108.1846v-84.3682c0-4.3096 3.5063-7.8164 7.8159-7.8164h6.2808v100h-6.2812c-4.3096 0-7.8154-3.5059-7.8154-7.8154zm25.9688 116v-84.3682c0-4.3096 3.5059-7.8154 7.8154-7.8154h6.2715v100h-6.2715c-4.3096 0-7.8154-3.5068-7.8154-7.8164zm452.4922-84.3681v84.3691c0 4.3096-3.5059 7.8154-7.8154 7.8154h-5.085v-100h5.085c4.3096 0 7.8154 3.5059 7.8154 7.8154zm-56.2217-23.8155v-100h3.9453c4.3096 0 7.8154 3.5059 7.8154 7.8154v84.3682c0 4.3096-3.5059 7.8164-7.8154 7.8164zm49.3682-169.9746c0 29.7607-24.2129 53.9736-53.9736 53.9736-.0065 0-.0128.001-.0193.001h-19.3644v-8.001h19.3838c25.3496 0 45.9736-20.624 45.9736-45.9736s-20.624-45.9736-45.9736-45.9736h-384.1281c-2.2056 0-4-1.7939-4-4s1.7944-4 4-4h83.8137c.3063 2.4329 1.7155 4.6142 3.8572 5.8828 1.2559.7441 2.666 1.1172 4.0771 1.1172 1.3223 0 2.6455-.3271 3.8438-.9844l17.96-9.8398 17.9609 9.8398c2.4775 1.3594 5.4883 1.3086 7.9209-.1328 2.1417-1.2686 3.5508-3.4499 3.8572-5.8828h240.8372c29.7607 0 53.9736 24.2129 53.9736 53.9736zm-294.7452-69.9736v-6.8477h298.1748c1.8877 0 3.4238 1.5361 3.4238 3.4238s-1.5361 3.4238-3.4238 3.4238h-298.1748zm65.0879 276.9678c-14.791-6.1045-34.2832-9.4658-54.8867-9.4658s-40.0967 3.3613-54.8867 9.4658c-17.0371 7.0312-26.4189 17.2549-26.4189 28.7881s9.3818 21.7568 26.4189 28.7881c14.79 6.1045 34.2832 9.4658 54.8867 9.4658s40.0957-3.3613 54.8867-9.4658c17.0361-7.0312 26.4189-17.2549 26.4189-28.7881s-9.3828-21.7568-26.4189-28.7881zm-54.8867 51.0419c-39.8652 0-65.3057-13.1807-65.3057-22.2539s25.4404-22.2539 65.3057-22.2539 65.3057 13.1807 65.3057 22.2539-25.4404 22.2539-65.3057 22.2539zm-60.8164-118.3154v-39.4941c0-4.418 3.582-8 8-8h13.9727c4.418 0 8 3.582 8 8s-3.582 8-8 8h-5.9727v23.4941h151.8418v-23.4941h-110.46c-4.418 0-8-3.582-8-8s3.582-8 8-8h118.46c4.418 0 8 3.582 8 8v39.4941c0 4.418-3.582 8-8 8h-167.8418c-4.418 0-8-3.582-8-8zm169.8418-264.6943c0-4.418 3.582-8 8-8h14.4863c4.418 0 8 3.582 8 8s-3.582 8-8 8h-14.4863c-4.418 0-8-3.582-8-8zm-107.1611 138.041c0-4.418 3.582-8 8-8h7.9873c4.418 0 8 3.582 8 8s-3.582 8-8 8h-7.9873c-4.418 0-8-3.582-8-8z" fill="#c9a24c" fill-opacity="1" data-original-color="#000000ff" stroke="none" stroke-opacity="1"/></g></svg>