<svg version="1.1" id="svg3585" xml:space="preserve" width="300" height="300" viewBox="0 0 682.66669 682.66669" xmlns="http://www.w3.org/2000/svg" xmlns:svg="http://www.w3.org/2000/svg" xmlns:xlink="http://www.w3.org/1999/xlink" xmlns:svgjs="http://svgjs.dev/svgjs"><g width="100%" height="100%" transform="matrix(1,0,0,1,0,0)"><defs id="defs3589"><clipPath clipPathUnits="userSpaceOnUse" id="clipPath3599"><path d="M 0,512 H 512 V 0 H 0 Z" id="path3597" fill="#c9a24c" fill-opacity="1" data-original-color="#000000ff" stroke="none" stroke-opacity="1"/></clipPath></defs><g id="g3591" transform="matrix(1.3333333,0,0,-1.3333333,0,682.66667)"><g id="g3593"><g id="g3595" clip-path="url(#clipPath3599)"><g id="g3601" transform="translate(271,497)"><path d="M 0,0 C 0,0 -49.695,-51.124 -49.695,-71.285 -49.695,-157.338 150,-50.317 150,-181 150,-241 30,-331 30,-331 c 0,0 60,60 60,90 0,90 -210.001,-2.022 -210.001,122.047 C -120.001,-31 0,0 0,0 Z" style="stroke-linecap: round; stroke-linejoin: round; stroke-miterlimit: 10; stroke-dasharray: none;" id="path3603" fill="none" fill-opacity="1" stroke="#c9a24c" stroke-opacity="1" data-original-stroke-color="#000000ff" stroke-width="30" data-original-stroke-width="30"/></g><g id="g3605" transform="translate(235.0186,160.397)"><path d="m 0,0 c 0,18.106 24.893,48.971 35.981,65.603 -256.941,-171.294 -30,-124.906 -30,-211 C 131.22,-20.159 0,-63.284 0,0 Z" style="stroke-linecap: round; stroke-linejoin: round; stroke-miterlimit: 10; stroke-dasharray: none;" id="path3607" fill="none" fill-opacity="1" stroke="#c9a24c" stroke-opacity="1" data-original-stroke-color="#000000ff" stroke-width="30" data-original-stroke-width="30"/></g><g id="g3609" transform="translate(421,437)"><path d="M 0,0 V 60" style="stroke-linecap: round; stroke-linejoin: round; stroke-miterlimit: 10; stroke-dasharray: none;" id="path3611" fill="none" fill-opacity="1" stroke="#c9a24c" stroke-opacity="1" data-original-stroke-color="#000000ff" stroke-width="30" data-original-stroke-width="30"/></g><g id="g3613" transform="translate(391,467)"><path d="M 0,0 H 60" style="stroke-linecap: round; stroke-linejoin: round; stroke-miterlimit: 10; stroke-dasharray: none;" id="path3615" fill="none" fill-opacity="1" stroke="#c9a24c" stroke-opacity="1" data-original-stroke-color="#000000ff" stroke-width="30" data-original-stroke-width="30"/></g><g id="g3617" transform="translate(136,497)"><path d="m 0,0 c 0,-8.284 -6.716,-15 -15,-15 -8.284,0 -15,6.716 -15,15 0,8.284 6.716,15 15,15 C -6.716,15 0,8.284 0,0" style="fill-rule: nonzero;" id="path3619" fill="#c9a24c" fill-opacity="1" data-original-color="#000000ff" stroke="none" stroke-opacity="1"/></g><g id="g3621" transform="translate(496,256)"><path d="m 0,0 c 0,-8.284 -6.716,-15 -15,-15 -8.284,0 -15,6.716 -15,15 0,8.284 6.716,15 15,15 C -6.716,15 0,8.284 0,0" style="fill-rule: nonzero;" id="path3623" fill="#c9a24c" fill-opacity="1" data-original-color="#000000ff" stroke="none" stroke-opacity="1"/></g><g id="g3625" transform="translate(106,76)"><path d="m 0,0 c 0,-8.284 -6.716,-15 -15,-15 -8.284,0 -15,6.716 -15,15 0,8.284 6.716,15 15,15 C -6.716,15 0,8.284 0,0" style="fill-rule: nonzero;" id="path3627" fill="#c9a24c" fill-opacity="1" data-original-color="#000000ff" stroke="none" stroke-opacity="1"/></g><g id="g3629" transform="translate(181,241)"><path d="m 0,0 c -41.421,0 -75,-33.579 -75,-75 0,41.421 -33.579,75 -75,75 41.421,0 75,33.579 75,75 C -75,33.579 -41.421,0 0,0 Z" style="stroke-linecap: round; stroke-linejoin: round; stroke-miterlimit: 10; stroke-dasharray: none;" id="path3631" fill="none" fill-opacity="1" stroke="#c9a24c" stroke-opacity="1" data-original-stroke-color="#000000ff" stroke-width="30" data-original-stroke-width="30"/></g><g id="g3633" transform="translate(481,106)"><path d="m 0,0 c -33.137,0 -60,-26.863 -60,-60 0,33.137 -26.863,60 -60,60 33.137,0 60,26.863 60,60 C -60,26.863 -33.137,0 0,0 Z" style="stroke-linecap: round; stroke-linejoin: round; stroke-miterlimit: 10; stroke-dasharray: none;" id="path3635" fill="none" fill-opacity="1" stroke="#c9a24c" stroke-opacity="1" data-original-stroke-color="#000000ff" stroke-width="30" data-original-stroke-width="30"/></g></g></g></g></g></svg>