<svg version="1.1" id="svg3009" xml:space="preserve" width="300" height="300" viewBox="0 0 682.66669 682.66669" xmlns="http://www.w3.org/2000/svg" xmlns:svg="http://www.w3.org/2000/svg" xmlns:xlink="http://www.w3.org/1999/xlink" xmlns:svgjs="http://svgjs.dev/svgjs"><g width="100%" height="100%" transform="matrix(1,0,0,1,0,0)"><defs id="defs3013"><clipPath clipPathUnits="userSpaceOnUse" id="clipPath3023"><path d="M 0,512 H 512 V 0 H 0 Z" id="path3021" fill="#c9a24c" fill-opacity="1" data-original-color="#000000ff" stroke="none" stroke-opacity="1"/></clipPath></defs><g id="g3015" transform="matrix(1.3333333,0,0,-1.3333333,0,682.66667)"><g id="g3017"><g id="g3019" clip-path="url(#clipPath3023)"><g id="g3025" transform="translate(497,256)"><path d="m 0,0 c 0,-133.101 -107.899,-241 -241,-241 -133.101,0 -241,107.899 -241,241 0,133.101 107.899,241 241,241 C -107.899,241 0,133.101 0,0 Z" style="stroke-linecap: butt; stroke-linejoin: miter; stroke-miterlimit: 10; stroke-dasharray: none;" id="path3027" fill="none" fill-opacity="1" stroke="#c9a24c" stroke-opacity="1" data-original-stroke-color="#000000ff" stroke-width="30" data-original-stroke-width="30"/></g><g id="g3029" transform="translate(380.7471,256)"><path d="m 0,0 c 0,-133.101 -55.852,-241 -124.747,-241 -68.896,0 -124.747,107.899 -124.747,241 0,133.101 55.851,241 124.747,241 C -55.852,241 0,133.101 0,0 Z" style="stroke-linecap: butt; stroke-linejoin: miter; stroke-miterlimit: 10; stroke-dasharray: none;" id="path3031" fill="none" fill-opacity="1" stroke="#c9a24c" stroke-opacity="1" data-original-stroke-color="#000000ff" stroke-width="30" data-original-stroke-width="30"/></g><g id="g3033" transform="translate(256,497)"><path d="M 0,0 V -482" style="stroke-linecap: butt; stroke-linejoin: miter; stroke-miterlimit: 10; stroke-dasharray: none;" id="path3035" fill="none" fill-opacity="1" stroke="#c9a24c" stroke-opacity="1" data-original-stroke-color="#000000ff" stroke-width="30" data-original-stroke-width="30"/></g><g id="g3037" transform="translate(14.5,256)"><path d="M 0,0 H 483" style="stroke-linecap: butt; stroke-linejoin: miter; stroke-miterlimit: 10; stroke-dasharray: none;" id="path3039" fill="none" fill-opacity="1" stroke="#c9a24c" stroke-opacity="1" data-original-stroke-color="#000000ff" stroke-width="30" data-original-stroke-width="30"/></g><g id="g3041" transform="translate(47.2451,376.5)"><path d="M 0,0 H 417.511" style="stroke-linecap: butt; stroke-linejoin: miter; stroke-miterlimit: 10; stroke-dasharray: none;" id="path3043" fill="none" fill-opacity="1" stroke="#c9a24c" stroke-opacity="1" data-original-stroke-color="#000000ff" stroke-width="30" data-original-stroke-width="30"/></g><g id="g3045" transform="translate(41.667,135.5)"><path d="M 0,0 H 423.088" style="stroke-linecap: butt; stroke-linejoin: miter; stroke-miterlimit: 10; stroke-dasharray: none;" id="path3047" fill="none" fill-opacity="1" stroke="#c9a24c" stroke-opacity="1" data-original-stroke-color="#000000ff" stroke-width="30" data-original-stroke-width="30"/></g></g></g></g></g></svg>