<svg id="Icons" enable-background="new 0 0 32 32" viewBox="0 0 32 32" xmlns="http://www.w3.org/2000/svg" width="300" height="300" version="1.1" xmlns:xlink="http://www.w3.org/1999/xlink" xmlns:svgjs="http://svgjs.dev/svgjs"><g width="100%" height="100%" transform="matrix(1,0,0,1,0,0)"><path d="m17 1c-7.7 0-14 6.3-14 14 0 3.4 1.3 6.6 3.3 9l-2.3 7 7.3-3.2c1.7.8 3.7 1.2 5.7 1.2 7.7 0 14-6.3 14-14s-6.3-14-14-14z" style="stroke-linecap: round; stroke-linejoin: round; stroke-miterlimit: 10;" fill="none" fill-opacity="1" stroke="#c9a24c" stroke-opacity="1" data-original-stroke-color="#000000ff" stroke-width="2" data-original-stroke-width="2"/><g id="Page-1"><g id="Whatsapp" transform="translate(1 1)"><path id="Stroke-28" d="m23.7 19.1c.3-.9.3-1.6.2-1.8s-.3-.2-.7-.4-2.2-1.1-2.5-1.2-.7-.1-.9.3c-.4.5-.7 1-1 1.3-.2.2-.6.3-.9.1-.4-.2-1.6-.6-3-1.8-1.1-1-1.8-2.2-2.1-2.6-.2-.4 0-.6.2-.8l.6-.6c.2-.2.3-.3.4-.6.1-.2 0-.5-.1-.7s-.8-2-1.1-2.7c-.2-.6-.4-.6-.8-.6-.1 0-.3 0-.4 0-.5 0-1 .1-1.3.5-.4.4-1.3 1.3-1.3 3.1s1.3 3.6 1.5 3.8 2.6 4 6.3 5.6c2.9 1.2 3.8 1.1 4.4 1 1-.3 2.2-1 2.5-1.9z" fill="none" stroke="#c9a24c" stroke-width="2" fill-opacity="1" stroke-opacity="1" data-original-stroke-color="#000000ff" data-original-stroke-width="2"/></g></g></g></svg>